<mxfile host="app.diagrams.net" modified="2021-08-27T03:41:09.152Z" agent="5.0 (Windows NT 10.0; Win64; x64) AppleWebKit/537.36 (KHTML, like Gecko) Chrome/92.0.4515.159 Safari/537.36" etag="oc0PHp7o1m6N4W0_S2xM" version="14.9.9" type="github">
  <diagram id="ATNCW8lnG_UStPvmQ1Q7" name="NodeEcosystem">
    <mxGraphModel dx="1038" dy="600" grid="1" gridSize="10" guides="1" tooltips="1" connect="1" arrows="1" fold="1" page="1" pageScale="1" pageWidth="850" pageHeight="1100" math="0" shadow="0">
      <root>
        <mxCell id="0" />
        <mxCell id="1" parent="0" />
        <mxCell id="qzP736LOcyKSG3outPGJ-2" value="Hardware" style="rounded=1;whiteSpace=wrap;html=1;shadow=0;glass=0;fillColor=#eeeeee;strokeColor=#36393d;" vertex="1" parent="1">
          <mxGeometry x="480" y="380" width="120" height="50" as="geometry" />
        </mxCell>
        <mxCell id="qzP736LOcyKSG3outPGJ-3" value="Operating System" style="rounded=1;whiteSpace=wrap;html=1;fillColor=#eeeeee;strokeColor=#36393d;" vertex="1" parent="1">
          <mxGeometry x="480" y="330" width="120" height="50" as="geometry" />
        </mxCell>
        <mxCell id="qzP736LOcyKSG3outPGJ-4" value="JavaScript Engine" style="rounded=1;whiteSpace=wrap;html=1;fillColor=#cdeb8b;strokeColor=#36393d;" vertex="1" parent="1">
          <mxGeometry x="480" y="280" width="120" height="50" as="geometry" />
        </mxCell>
        <mxCell id="qzP736LOcyKSG3outPGJ-11" style="edgeStyle=orthogonalEdgeStyle;rounded=0;orthogonalLoop=1;jettySize=auto;html=1;" edge="1" parent="1" source="qzP736LOcyKSG3outPGJ-5" target="qzP736LOcyKSG3outPGJ-10">
          <mxGeometry relative="1" as="geometry" />
        </mxCell>
        <mxCell id="qzP736LOcyKSG3outPGJ-5" value="NodeJS Core API" style="rounded=1;whiteSpace=wrap;html=1;fillColor=#cce5ff;strokeColor=#36393d;" vertex="1" parent="1">
          <mxGeometry x="480" y="230" width="120" height="50" as="geometry" />
        </mxCell>
        <mxCell id="qzP736LOcyKSG3outPGJ-12" style="edgeStyle=orthogonalEdgeStyle;rounded=0;orthogonalLoop=1;jettySize=auto;html=1;entryX=0.9;entryY=0.418;entryDx=0;entryDy=0;entryPerimeter=0;fillColor=#ffcc99;strokeColor=#36393d;" edge="1" parent="1" source="qzP736LOcyKSG3outPGJ-8" target="qzP736LOcyKSG3outPGJ-9">
          <mxGeometry relative="1" as="geometry" />
        </mxCell>
        <mxCell id="qzP736LOcyKSG3outPGJ-8" value="NPM JS" style="rounded=1;whiteSpace=wrap;html=1;fillColor=#ffcc99;strokeColor=#36393d;" vertex="1" parent="1">
          <mxGeometry x="480" y="180" width="120" height="50" as="geometry" />
        </mxCell>
        <mxCell id="qzP736LOcyKSG3outPGJ-9" value="External Libraries" style="ellipse;shape=cloud;whiteSpace=wrap;html=1;shadow=0;glass=0;fillColor=#ffcc99;strokeColor=#36393d;" vertex="1" parent="1">
          <mxGeometry x="220" y="140" width="150" height="90" as="geometry" />
        </mxCell>
        <mxCell id="qzP736LOcyKSG3outPGJ-10" value="File System&lt;br&gt;Http&lt;br&gt;Events&lt;br&gt;Modules&lt;br&gt;Path&lt;br&gt;" style="rounded=0;whiteSpace=wrap;html=1;shadow=0;glass=0;fillColor=#cce5ff;strokeColor=#36393d;" vertex="1" parent="1">
          <mxGeometry x="230" y="260" width="130" height="100" as="geometry" />
        </mxCell>
      </root>
    </mxGraphModel>
  </diagram>
</mxfile>
